<svg id="Capa_1" enable-background="new 0 0 512 512" height="512" viewBox="0 0 512 512" width="512" xmlns="http://www.w3.org/2000/svg"><g><path d="m256 486.242c-17.091 0-30.946-13.855-30.946-30.946v-10.854h61.892v10.854c0 17.091-13.855 30.946-30.946 30.946z" fill="#a59da5"/><path d="m287.022 450.364h-62.045c-7.808 0-14.137-6.329-14.137-14.137v-80.278h90.319v80.278c.001 7.808-6.329 14.137-14.137 14.137z" fill="#e2dfe2"/><path d="m259.952 355.949v38.626c0 19.432-15.753 35.185-35.185 35.185h-13.927v6.466c0 7.808 6.329 14.137 14.137 14.137h62.045c7.808 0 14.137-6.329 14.137-14.137v-80.278h-41.207z" fill="#d3ced5"/><path d="m303.424 400.421h-94.847c-4.268 0-7.726-3.459-7.726-7.726s3.459-7.726 7.726-7.726h94.847c4.268 0 7.726 3.459 7.726 7.726s-3.459 7.726-7.726 7.726z" fill="#f9f6f9"/><path d="m303.424 426.865h-94.847c-4.268 0-7.726-3.459-7.726-7.726s3.459-7.726 7.726-7.726h94.847c4.268 0 7.726 3.459 7.726 7.726 0 4.266-3.459 7.726-7.726 7.726z" fill="#f9f6f9"/><path d="m398.803 168.561c0-78.868-63.935-142.803-142.803-142.803s-142.803 63.935-142.803 142.803c0 41.045 17.317 76.636 45.043 106.22 19.582 20.895 31.726 47.486 35.043 75.672 1.056 8.97 8.526 15.797 17.557 15.797h90.319c9.031 0 16.502-6.828 17.557-15.797 3.317-28.186 15.461-54.778 35.043-75.672 27.727-29.584 45.044-65.174 45.044-106.22z" fill="#ffe07d"/><path d="m298.357 32.145c35.887 25.939 59.239 68.149 59.239 115.813 0 41.045-17.317 76.636-45.043 106.22-12.26 13.081-21.604 28.395-27.692 44.936-10.345 28.106-37.434 46.534-67.384 46.534h-24.848c.246 1.597.465 3.199.654 4.807 1.056 8.97 8.526 15.797 17.557 15.797h90.319c9.031 0 16.502-6.828 17.557-15.797 3.317-28.186 15.461-54.778 35.043-75.673 27.726-29.584 45.043-65.175 45.043-106.22.001-64.121-42.258-118.37-100.445-136.417z" fill="#ffd064"/><path d="m245.405 216.643-22.62 63.339c-1.05 2.939 1.129 6.031 4.25 6.031h14.418c1.543 0 2.979-.788 3.807-2.089l61.244-96.2c2.793-4.387-.358-10.13-5.559-10.13h-23.141c-4.558 0-7.739-4.515-6.207-8.807l19.28-53.985c1.533-4.292-1.649-8.807-6.207-8.807h-39.607c-2.785 0-5.27 1.751-6.207 4.374l-34.012 95.238c-1.533 4.292 1.649 8.807 6.207 8.807h32.783c1.153 0 1.958 1.143 1.571 2.229z" fill="#fff3bf"/><g fill="#ffc250"><path d="m429.326 167.956c0-8.534 6.919-15.453 15.453-15.453h51.769c8.534 0 15.453 6.919 15.453 15.453s-6.919 15.453-15.453 15.453h-51.769c-8.535 0-15.453-6.919-15.453-15.453z"/><path d="m410.614 71.233c0-5.34 2.771-10.534 7.729-13.396l44.833-25.884c7.391-4.268 16.842-1.735 21.109 5.656 4.266 7.39 1.735 16.841-5.656 21.109l-44.833 25.884c-7.391 4.268-16.842 1.735-21.109-5.656-1.405-2.435-2.073-5.092-2.073-7.713z"/><path d="m410.614 264.679c0-2.622.668-5.279 2.073-7.712 4.267-7.391 13.718-9.924 21.109-5.656l44.833 25.884c7.391 4.268 9.924 13.716 5.656 21.109-4.267 7.391-13.718 9.924-21.109 5.656l-44.833-25.884c-4.958-2.862-7.729-8.057-7.729-13.397z"/><path d="m82.674 167.956c0-8.534-6.919-15.453-15.453-15.453h-51.768c-8.534 0-15.453 6.919-15.453 15.453s6.919 15.453 15.453 15.453h51.769c8.534 0 15.452-6.919 15.452-15.453z"/><path d="m101.386 71.233c0-5.34-2.771-10.534-7.729-13.396l-44.833-25.885c-7.391-4.268-16.842-1.735-21.109 5.656-4.266 7.39-1.735 16.841 5.656 21.109l44.833 25.884c7.391 4.268 16.842 1.735 21.109-5.656 1.405-2.434 2.073-5.091 2.073-7.712z"/><path d="m101.386 264.679c0-2.622-.668-5.279-2.073-7.712-4.267-7.391-13.718-9.924-21.109-5.656l-44.833 25.884c-7.391 4.268-9.924 13.716-5.656 21.109 4.267 7.391 13.718 9.924 21.109 5.656l44.833-25.884c4.958-2.862 7.729-8.057 7.729-13.397z"/></g><path d="m144.805 139.706c-.802 0-1.618-.126-2.422-.391-4.052-1.337-6.254-5.705-4.917-9.758 13.16-39.898 45.19-70.321 85.68-81.382 4.114-1.124 8.365 1.301 9.49 5.417 1.124 4.117-1.302 8.365-5.418 9.489-35.479 9.692-63.545 36.352-75.078 71.316-1.071 3.249-4.091 5.309-7.335 5.309z" fill="#fff3bf"/></g></svg>