<svg xmlns="http://www.w3.org/2000/svg" width="24" height="22.8" viewBox="0 0 24 22.8">
  <g id="icon-Staff" transform="translate(-1.723 -1.59)">
    <circle id="Ellipse_6" data-name="Ellipse 6" cx="6" cy="6" r="6" transform="translate(7.885 1.59)" fill="#fff"/>
    <path id="Path_187" data-name="Path 187" d="M11.467,12.95H16.2a9.534,9.534,0,0,1,9.467,9.6H2a9.534,9.534,0,0,1,9.467-9.6Z" transform="translate(0.055 1.84)" fill="#fff"/>
    <path id="Path_188" data-name="Path 188" d="M4,14.358a.384.384,0,0,1-.4-.4V9.606a.384.384,0,0,1,.4-.4.4.4,0,0,1,.4.4v4.356a.4.4,0,0,1-.4.4Z" transform="translate(0.375 1.321)" fill="#fff"/>
    <path id="Path_189" data-name="Path 189" d="M6.951,11.415a.4.4,0,0,1-.4.4H2.187a.4.4,0,1,1,0-.78H6.555a.384.384,0,0,1,.4.384Z" transform="translate(0 1.681)" fill="#fff"/>
  </g>
</svg>
